Coordinates
version=1
nRows=10
nColumns=40
inDegrees=yes

Units are S.I. units (second, meters, Newtons, ...)
If the header above contains a line with 'inDegrees', this indicates whether rotational values are in degrees (yes) or radians (no).

endheader
time	pelvis_tilt	pelvis_list	pelvis_rotation	pelvis_tx	pelvis_ty	pelvis_tz	hip_flexion_r	hip_adduction_r	hip_rotation_r	knee_angle_r	knee_angle_r_beta	ankle_angle_r	subtalar_angle_r	mtp_angle_r	hip_flexion_l	hip_adduction_l	hip_rotation_l	knee_angle_l	knee_angle_l_beta	ankle_angle_l	subtalar_angle_l	mtp_angle_l	lumbar_extension	lumbar_bending	lumbar_rotation	arm_flex_r	arm_add_r	arm_rot_r	elbow_flex_r	pro_sup_r	wrist_flex_r	wrist_dev_r	arm_flex_l	arm_add_l	arm_rot_l	elbow_flex_l	pro_sup_l	wrist_flex_l	wrist_dev_l
      0.31200000	     23.71841528	      0.71185387	      1.02572002	      0.58510138	      0.98349355	     -0.31368458	    -18.82123930	      2.08163181	     -4.73479965	     16.15877769	      0.28202387	     -4.94464906	      0.00000000	      0.00000000	    -13.52487182	     -2.21989897	     -0.71124446	     55.69776865	      0.97210945	    -16.32225062	      0.00000000	      0.00000000	    -35.76704648	      2.10935012	     -1.58354046	      2.22878602	    -17.17037041	      7.29760886	     44.30812725	     74.84805036	      0.00000000	      0.00000000	      1.67636714	    -22.75330135	     21.39742819	     49.03589941	     81.93276105	      0.00000000	      0.00000000
      0.31600000	     24.13761860	      0.75020578	      1.13830725	      0.59171845	      0.98465434	     -0.31347871	    -20.29324534	      2.18872803	     -4.76800887	     15.00728143	      0.26192647	     -5.44043929	      0.00000000	      0.00000000	    -13.62467196	     -2.09244475	     -0.41665694	     55.22270495	      0.96381802	    -15.90029454	      0.00000000	      0.00000000	    -36.06530589	      2.08065477	     -1.75309134	      2.18771997	    -17.11896374	      7.39719991	     44.58023381	     75.00730185	      0.00000000	      0.00000000	      1.16216195	    -22.83310484	     20.96220940	     49.29169931	     81.92335101	      0.00000000	      0.00000000
      0.32000000	     24.11263063	      0.72598086	      1.02576374	      0.59653991	      0.98519729	     -0.31349311	    -20.63088053	      2.16867106	     -4.90590755	     14.90517917	      0.26014445	     -5.39021329	      0.00000000	      0.00000000	    -12.96022911	     -1.96552589	     -0.41440335	     54.97023973	      0.95941167	    -15.72298341	      0.00000000	      0.00000000	    -36.12356882	      2.03100601	     -1.56805392	      2.35465323	    -17.20579184	      7.31078518	     44.72787680	     74.97431396	      0.00000000	      0.00000000	      1.05366519	    -22.87813695	     20.96099953	     49.43336681	     81.91577350	      0.00000000	      0.00000000
      0.32400000	     23.98936537	      0.85732925	      1.02132025	      0.60230636	      0.98544826	     -0.31332036	    -21.11057926	      2.06643066	     -5.01134919	     14.45133390	      0.25222336	     -5.40373096	      0.00000000	      0.00000000	    -12.22403223	     -1.73237740	     -0.26828199	     54.75859126	      0.95571771	    -14.96902894	      0.00000000	      0.00000000	    -35.97721566	      1.85246005	     -1.55376741	      2.22782523	    -17.21976597	      7.24862204	     45.18207310	     74.87411245	      0.00000000	      0.00000000	      0.83979503	    -22.86501816	     20.70761461	     49.52725111	     81.83290481	      0.00000000	      0.00000000
      0.32800000	     24.03482110	      0.82742305	      1.04799001	      0.60797866	      0.98584475	     -0.31289077	    -21.73318211	      2.16173296	     -5.20943370	     14.05312890	      0.24527337	     -5.45558853	      0.00000000	      0.00000000	    -11.66553666	     -1.84073255	     -0.34322811	     54.53033853	      0.95173395	    -13.90780761	      0.00000000	      0.00000000	    -35.99971902	      1.81353304	     -1.47771708	      2.20963276	    -17.16698352	      7.15331587	     45.44153600	     74.76581723	      0.00000000	      0.00000000	      0.57912834	    -22.97926477	     20.53055335	     49.77623167	     81.75377944	      0.00000000	      0.00000000
      0.33200000	     24.17028850	      0.77914504	      1.16345099	      0.61378504	      0.98633305	     -0.31268915	    -22.60170303	      2.35042676	     -5.34958678	     13.37743248	      0.23348024	     -5.68899036	      0.00000000	      0.00000000	    -11.25258040	     -1.86617976	     -0.15902486	     54.23342181	      0.94655178	    -12.95024600	      0.00000000	      0.00000000	    -36.12180676	      1.86040812	     -1.54399531	      2.20849477	    -17.15636004	      7.27255577	     45.77511767	     74.73903906	      0.00000000	      0.00000000	      0.23293311	    -23.04190982	     20.18638009	     49.98205823	     81.54863572	      0.00000000	      0.00000000
      0.33600000	     24.16335817	      0.74137417	      1.13037719	      0.61856834	      0.98671264	     -0.31244804	    -22.94504240	      2.38247979	     -5.49226161	     13.31412328	      0.23237529	     -5.67167968	      0.00000000	      0.00000000	    -10.59537382	     -1.84020065	     -0.22698933	     53.88889124	      0.94053858	    -12.78221989	      0.00000000	      0.00000000	    -36.17592163	      1.82591139	     -1.39780713	      2.39342014	    -17.17966521	      7.27728761	     45.90915764	     74.72707595	      0.00000000	      0.00000000	      0.17288025	    -23.11498970	     20.19643300	     50.09447780	     81.53173224	      0.00000000	      0.00000000
      0.34000000	     24.04019302	      0.81176805	      1.08194373	      0.62419217	      0.98673981	     -0.31238705	    -23.40659838	      2.32881962	     -5.56838708	     12.86057272	      0.22445934	     -5.71759357	      0.00000000	      0.00000000	     -9.92450869	     -1.66640149	     -0.17905201	     53.48823589	      0.93354583	    -12.28044114	      0.00000000	      0.00000000	    -36.00990484	      1.68936498	     -1.34638008	      2.37273205	    -17.25472281	      7.40569016	     46.23274839	     74.63844800	      0.00000000	      0.00000000	     -0.10000857	    -23.17493901	     20.10441809	     50.35860002	     81.38181081	      0.00000000	      0.00000000
      0.34400000	     24.03699882	      0.77135751	      1.06417690	      0.62885516	      0.98698521	     -0.31216000	    -23.75341910	      2.37991087	     -5.68141432	     12.77824550	      0.22302246	     -5.68934016	      0.00000000	      0.00000000	     -9.26638667	     -1.66636231	     -0.20985793	     53.13806003	      0.92743411	    -12.11490967	      0.00000000	      0.00000000	    -36.12791507	      1.67890203	     -1.24587041	      2.58319437	    -17.25596509	      7.40634192	     46.40348939	     74.62932906	      0.00000000	      0.00000000	     -0.07480355	    -23.22451275	     20.02354876	     50.36784172	     81.34977016	      0.00000000	      0.00000000
      0.34800000	     23.91636723	      0.69508653	      0.99534908	      0.63399295	      0.98698086	     -0.31202800	    -24.05813972	      2.46242882	     -5.87249873	     12.54311264	      0.21891861	     -5.59664988	      0.00000000	      0.00000000	     -8.63196889	     -1.58097785	     -0.06281025	     52.66886101	      0.91924504	    -12.06234974	      0.00000000	      0.00000000	    -36.03905709	      1.66655457	     -1.06751620	      2.66626742	    -17.30602316	      7.45105876	     46.63861303	     74.61377622	      0.00000000	      0.00000000	     -0.17395656	    -23.19025394	     19.88017657	     50.43447057	     81.28273410	      0.00000000	      0.00000000
